<?xml version="1.0" encoding="utf-8"?>
<!-- Generator: Adobe Illustrator 21.1.0, SVG Export Plug-In . SVG Version: 6.00 Build 0)  -->
<!DOCTYPE svg PUBLIC "-//W3C//DTD SVG 1.1//EN" "http://www.w3.org/Graphics/SVG/1.1/DTD/svg11.dtd">
<svg version="1.1" id="Capa_1" xmlns="http://www.w3.org/2000/svg" xmlns:xlink="http://www.w3.org/1999/xlink" x="0px" y="0px"
	 viewBox="0 0 116 116" style="enable-background:new 0 0 116 116;" xml:space="preserve">
<style type="text/css">
	.st0{fill:#CC0000;}
	.st1{fill:#FFFFFF;}
</style>
<rect class="st0" width="116" height="116"/>
<g>
	<path class="st1" d="M93.1,19.9H80.6c-14,0-23.1,9.3-23.1,23.7v10.9H45c-1.1,0-2,0.9-2,2v15.8c0,1.1,0.9,2,2,2h12.5V114
		c0,1.1,0.9,2,2,2h16.4c1.1,0,2-0.9,2-2V74.2h14.7c1.1,0,2-0.9,2-2V56.4c0-0.5-0.2-1-0.6-1.4s-0.9-0.6-1.4-0.6H77.8v-9.2
		c0-4.4,1.1-6.7,6.8-6.7H93c1.1,0,2-0.9,2-2V21.9C95,20.8,94.2,19.9,93.1,19.9z"/>
</g>
</svg>
