<?xml version="1.0" encoding="utf-8"?>
<!-- Generator: Adobe Illustrator 21.1.0, SVG Export Plug-In . SVG Version: 6.00 Build 0)  -->
<!DOCTYPE svg PUBLIC "-//W3C//DTD SVG 1.1//EN" "http://www.w3.org/Graphics/SVG/1.1/DTD/svg11.dtd">
<svg version="1.1" id="Capa_1" xmlns="http://www.w3.org/2000/svg" xmlns:xlink="http://www.w3.org/1999/xlink" x="0px" y="0px"
	 viewBox="0 0 116 116" style="enable-background:new 0 0 116 116;" xml:space="preserve">
<style type="text/css">
	.st0{fill:#FFFFFF;}
	.st1{fill:#CC0000;}
</style>
<rect class="st0" width="116" height="116"/>
<path class="st1" d="M92.8,87.2V63c0-13-6.9-19-16.2-19c-7.4,0-10.8,4.1-12.6,7v-6H50c0.2,4,0,42.2,0,42.2h14V63.6
	c0-1.3,0.1-2.5,0.5-3.4c1-2.5,3.3-5.1,7.2-5.1c5.1,0,7.1,3.9,7.1,9.5v22.6H92.8L92.8,87.2z M35.2,39.2c4.9,0,7.9-3.2,7.9-7.3
	c-0.1-4.1-3-7.3-7.8-7.3s-7.9,3.1-7.9,7.3C27.3,36,30.4,39.2,35.2,39.2L35.2,39.2z M42.2,87.2V45h-14v42.2H42.2z M-4-4h124v124H-4
	V-4z"/>
</svg>
