<?xml version="1.0" encoding="utf-8"?>
<!-- Generator: Adobe Illustrator 21.1.0, SVG Export Plug-In . SVG Version: 6.00 Build 0)  -->
<!DOCTYPE svg PUBLIC "-//W3C//DTD SVG 1.1//EN" "http://www.w3.org/Graphics/SVG/1.1/DTD/svg11.dtd">
<svg version="1.1" id="Layer_1" xmlns="http://www.w3.org/2000/svg" xmlns:xlink="http://www.w3.org/1999/xlink" x="0px" y="0px"
	 viewBox="0 0 187 154.7" style="enable-background:new 0 0 187 154.7;" xml:space="preserve">
<style type="text/css">
	.st0{fill:#FFFFFF;}
	.st1{fill:#083C73;}
	.st2{fill:#BF0A30;stroke:#BF0A30;stroke-miterlimit:10;}
</style>
<path id="XMLID_101_" class="st0" d="M103.3,137.9c-0.5,0.1-1,0.1-1.5,0.2v16.5v-12.2L103.3,137.9z"/>
<path id="XMLID_100_" class="st0" d="M89.7,143.1v11.6v-16.5c-0.6-0.1-1.2-0.2-1.8-0.3L89.7,143.1z"/>
<path id="XMLID_99_" class="st0" d="M124.1,174.4"/>
<path class="st1" d="M137.7,1.9v14.5h31.4v121.9h-68.6v-17.8l-1.2,0.2c-2.2,0.3-4.2,0.5-6,0.5c-2,0-4-0.1-6.1-0.4l-1.2-0.2v17.8
	H17.5V16.4h31.4V1.9H3v150.8h180.6V1.9H137.7z"/>
<path class="st2" d="M127.4,15.3V2.9H57.2v12.4h28.9v27.4C69.8,45.7,57.5,59.9,57.5,77c0,19.2,15.6,34.8,34.8,34.8
	c17,0,31.1-12.2,34.2-28.2h-12.7c-2.8,9.2-11.3,15.8-21.4,15.8c-12.3,0-22.4-10-22.4-22.4s10-22.4,22.4-22.4c10.3,0,19,7,21.6,16.5
	h12.7c-2.4-14.4-13.7-25.8-28.1-28.4V15.3H127.4z"/>
</svg>
