<?xml version="1.0" encoding="utf-8"?>
<!-- Generator: Adobe Illustrator 21.1.0, SVG Export Plug-In . SVG Version: 6.00 Build 0)  -->
<!DOCTYPE svg PUBLIC "-//W3C//DTD SVG 1.1//EN" "http://www.w3.org/Graphics/SVG/1.1/DTD/svg11.dtd">
<svg version="1.1" id="Layer_1" xmlns="http://www.w3.org/2000/svg" xmlns:xlink="http://www.w3.org/1999/xlink" x="0px" y="0px"
	 viewBox="0 0 604 154.7" style="enable-background:new 0 0 604 154.7;" xml:space="preserve">
<style type="text/css">
	.st0{fill:#CC0000;}
	.st1{fill:#162975;}
</style>
<path class="st0" d="M132.3,15.8V3.6h-30.5H89.5H59v12.2h30.5v25C72.2,43.7,59,58.7,59,76.9c0,20.2,16.4,36.7,36.7,36.7
	c18.2,0,33.2-13.2,36.1-30.5h-12.5c-2.7,10.5-12.3,18.3-23.6,18.3c-13.5,0-24.4-11-24.4-24.4s11-24.4,24.4-24.4
	c11.4,0,20.9,7.8,23.6,18.3h12.5c-2.6-15.3-14.7-27.4-30-30v-25H132.3z"/>
<g>
	<path class="st1" d="M144.5,3.6v12.2H175V138h-73.3v-14.7c-2,0.3-4,0.4-6.1,0.4c-2.1,0-4.1-0.1-6.1-0.4V138H16.2V15.8h30.5V3.6
		H12.8C7.9,3.6,4,7.5,4,12.4v128.3c0,5.2,4.2,9.5,9.5,9.5h164.7c5,0,9-4.1,9-9V12.5c0-4.9-4-8.9-8.9-8.9H144.5z"/>
</g>
<polygon class="st0" points="262.9,49.3 233.6,49.3 233.6,58.4 242.8,58.4 242.8,104.5 253.8,104.5 253.8,58.4 262.9,58.4 "/>
<path class="st0" d="M296.3,86.4V73.2c0-7.3-3.3-10.9-10.2-10.9h-9.9c-6.9,0-10.2,3.6-10.2,10.9v21.3c0,7.3,3.3,10.9,10.2,10.9h9.9
	c6.9,0,10.2-3.6,10.2-10.9v-2.7h-10.4v4.1c0,0.6-0.2,1.2-0.6,1.7c-0.4,0.5-1,0.7-1.6,0.7h-4.8c-0.6,0-1.2-0.3-1.6-0.7
	c-0.4-0.5-0.6-1-0.6-1.7v-9.5H296.3z M276.5,71.4c0-0.6,0.2-1.2,0.6-1.7c0.4-0.5,1-0.7,1.6-0.7h4.8c0.6,0,1.2,0.3,1.6,0.7
	c0.4,0.5,0.6,1,0.6,1.7v8.5h-9.4V71.4z"/>
<polygon class="st0" points="325.7,104.5 336.4,104.5 324.8,82.4 335.5,63.2 324.3,63.2 318.8,77 313.3,63.2 302.1,63.2 312.8,82.4 
	301.3,104.5 311.9,104.5 318.8,89.7 "/>
<path class="st0" d="M374.4,64v-4.7c0-7.3-3.3-10.9-10.2-10.9h-11c-6.9,0-10.2,3.6-10.2,10.9v35.2c0,7.3,3.3,10.9,10.2,10.9h11
	c6.9,0,10.2-3.6,10.2-10.9v-6.7h-10.3v8.1c0,0.6-0.2,1.2-0.6,1.7c-0.4,0.5-1,0.7-1.6,0.7h-5.5c-0.6,0-1.2-0.3-1.6-0.7
	c-0.4-0.5-0.6-1-0.6-1.7V57.8c0-0.6,0.2-1.2,0.6-1.7c0.4-0.5,1-0.7,1.6-0.7h5.5c0.6,0,1.2,0.3,1.6,0.7c0.4,0.5,0.6,1,0.6,1.7V64
	H374.4z"/>
<path class="st0" d="M402.6,62.3h-9.9c-6.9,0-10.2,3.6-10.2,10.9v21.3c0,7.3,3.3,10.9,10.2,10.9h9.9c6.9,0,10.2-3.6,10.2-10.9V73.2
	C412.8,65.9,409.5,62.3,402.6,62.3z M402.4,96.9c0,0.6-0.2,1.2-0.6,1.7c-0.4,0.5-1,0.7-1.6,0.7h-4.8c-0.6,0-1.2-0.3-1.6-0.7
	c-0.4-0.5-0.6-1-0.6-1.7V70.7c0-0.6,0.2-1.2,0.6-1.7c0.4-0.5,1-0.7,1.6-0.7h4.8c0.6,0,1.2,0.3,1.6,0.7c0.4,0.5,0.6,1,0.6,1.7V96.9z"
	/>
<path class="st0" d="M439.6,69.4c0.6,0,1.2,0.3,1.6,0.7c0.4,0.5,0.6,1,0.6,1.7v32.7h10.4V73.2c0-7.3-3.3-10.9-10.2-10.9h-1.8
	c-3.5,0-6.1,1-7.7,2.8l-1.1,1.3v-3.2H422v41.3h10.4V71.8c0-0.6,0.2-1.2,0.6-1.7c0.4-0.5,1-0.7,1.6-0.7H439.6z"/>
<path class="st0" d="M479,69.4c0.6,0,1.2,0.3,1.6,0.7c0.4,0.5,0.6,1,0.6,1.7v32.7h10.4V73.2c0-7.3-3.3-10.9-10.2-10.9h-1.8
	c-3.5,0-6.1,1-7.7,2.8l-1.1,1.3v-3.2h-9.4v41.3h10.4V71.8c0-0.6,0.2-1.2,0.6-1.7c0.4-0.5,1-0.7,1.6-0.7H479z"/>
<path class="st0" d="M501,94.5c0,7.3,3.3,10.9,10.2,10.9h9.9c6.9,0,10.2-3.6,10.2-10.9v-2.7h-10.4v4.1c0,0.6-0.2,1.2-0.6,1.7
	c-0.4,0.5-1,0.7-1.6,0.7h-4.8c-0.6,0-1.2-0.3-1.6-0.7c-0.4-0.5-0.6-1-0.6-1.7v-9.5h19.8V73.2c0-7.3-3.3-10.9-10.2-10.9h-9.9
	c-6.9,0-10.2,3.6-10.2,10.9V94.5z M511.4,71.4c0-0.6,0.2-1.2,0.6-1.7c0.4-0.5,1-0.7,1.6-0.7h4.8c0.6,0,1.2,0.3,1.6,0.7
	c0.4,0.5,0.6,1,0.6,1.7v8.5h-9.4V71.4z"/>
<path class="st0" d="M570.6,78.7v-5.5c0-7.3-3.3-10.9-10.2-10.9h-9.9c-6.9,0-10.2,3.6-10.2,10.9v21.3c0,7.3,3.3,10.9,10.2,10.9h9.9
	c6.9,0,10.2-3.6,10.2-10.9V89h-10.4v6.9c0,0.6-0.2,1.2-0.6,1.7c-0.4,0.5-1,0.7-1.7,0.7h-4.8c-0.6,0-1.2-0.3-1.6-0.7
	c-0.4-0.5-0.6-1-0.6-1.7V71.8c0-0.6,0.2-1.2,0.6-1.7c0.4-0.5,1-0.7,1.6-0.7h4.8c0.6,0,1.2,0.3,1.6,0.7c0.4,0.5,0.6,1,0.6,1.7v6.9
	H570.6z"/>
<path class="st0" d="M589.5,105.4h7.6v-6.3h-2.9c-1.4,0-2.6-0.3-3.3-1c-0.8-0.7-1.2-2-1.2-3.8V70.4h7.3v-7.2h-7.3v-9.3h-10.4v40.6
	C579.3,101.8,582.7,105.4,589.5,105.4z"/>
</svg>
