<?xml version="1.0" encoding="utf-8"?>
<!-- Generator: Adobe Illustrator 19.1.0, SVG Export Plug-In . SVG Version: 6.00 Build 0)  -->
<svg version="1.1" id="Layer_1" xmlns="http://www.w3.org/2000/svg" xmlns:xlink="http://www.w3.org/1999/xlink" x="0px" y="0px"
	 viewBox="-295 381 21 32" style="enable-background:new -295 381 21 32;" xml:space="preserve">
<style type="text/css">
	.st0{fill:#FFFFFF;}
</style>
<g id="icomoon-ignore">
</g>
<path class="st0" d="M-284.3,381c-3.4,2.1-5.3,6.1-5.3,9.2c0,0.6,0,1.8,0,3.3c0,1.9,0,4.3,0,6.6v6.6h10.7v-6.7c0-2.2,0-4.6,0-6.6
	c0-1.4,0-2.6,0-3.3C-279,387.1-281,383.1-284.3,381L-284.3,381z M-284.3,393.3c-1.2,0-2.1-1-2.1-2.1s1-2.1,2.1-2.1s2.1,1,2.1,2.1
	S-283.2,393.3-284.3,393.3z"/>
<path class="st0" d="M-284.9,407.7h1.1v5.3h-1.1V407.7z"/>
<path class="st0" d="M-282.2,407.7h1.1v3.2h-1.1V407.7z"/>
<path class="st0" d="M-287.5,407.7h1.1v3.2h-1.1C-287.5,410.9-287.5,407.7-287.5,407.7z"/>
<path class="st0" d="M-277.9,401.3v5.3h4.3L-277.9,401.3z"/>
<path class="st0" d="M-290.7,406.6v-5.3l-4.3,5.3H-290.7z"/>
</svg>
