<?xml version="1.0" encoding="utf-8"?>
<!-- Generator: Adobe Illustrator 21.1.0, SVG Export Plug-In . SVG Version: 6.00 Build 0)  -->
<!DOCTYPE svg PUBLIC "-//W3C//DTD SVG 1.1//EN" "http://www.w3.org/Graphics/SVG/1.1/DTD/svg11.dtd">
<svg version="1.1" id="Capa_1" xmlns="http://www.w3.org/2000/svg" xmlns:xlink="http://www.w3.org/1999/xlink" x="0px" y="0px"
	 viewBox="0 0 116 116" style="enable-background:new 0 0 116 116;" xml:space="preserve">
<style type="text/css">
	.st0{fill:#CC0000;}
	.st1{fill:#FFFFFF;}
</style>
<rect class="st0" width="116" height="116"/>
<g>
	<g>
		<path class="st1" d="M94.3,35.5c-2.7,1.2-5.5,2-8.5,2.3c3.1-1.8,5.4-4.8,6.5-8.2c-2.9,1.7-6.1,2.9-9.5,3.6
			c-2.7-2.9-6.6-4.7-10.9-4.7c-8.2,0-14.9,6.7-14.9,14.9c0,1.2,0.1,2.3,0.4,3.4C45,46.2,34.1,40.3,26.7,31.3c-1.3,2.2-2,4.7-2,7.5
			c0,5.2,2.6,9.7,6.6,12.4c-2.4-0.1-4.7-0.8-6.7-1.9v0.2c0,7.2,5.1,13.2,11.9,14.6c-1.2,0.3-2.6,0.5-3.9,0.5c-1,0-1.9-0.1-2.8-0.3
			c1.9,5.9,7.4,10.2,13.9,10.3c-5.1,4-11.5,6.4-18.5,6.4c-1.2,0-2.4-0.1-3.5-0.2c6.6,4.2,14.4,6.7,22.8,6.7
			c27.4,0,42.3-22.7,42.3-42.3v-1.9C89.7,41.1,92.3,38.5,94.3,35.5z"/>
	</g>
</g>
</svg>
